<svg width="38" height="18" viewBox="0 0 38 18" fill="none" xmlns="http://www.w3.org/2000/svg">
<mask id="path-1-inside-1_65_29" fill="white">
<path d="M38 17C38 13.0218 35.9982 9.20644 32.435 6.3934C28.8718 3.58035 24.0391 2 19 2C13.9609 2 9.12816 3.58035 5.56497 6.3934C2.00178 9.20644 7.60885e-07 13.0218 0 17L19 17H38Z"/>
</mask>
<path d="M38 17C38 13.0218 35.9982 9.20644 32.435 6.3934C28.8718 3.58035 24.0391 2 19 2C13.9609 2 9.12816 3.58035 5.56497 6.3934C2.00178 9.20644 7.60885e-07 13.0218 0 17L19 17H38Z" stroke="#1B1B1B" mask="url(#path-1-inside-1_65_29)"/>
<circle cx="19" cy="2" r="2" fill="#1B1B1B"/>
</svg>
