<svg width="100" height="94" viewBox="0 0 100 94" fill="none" xmlns="http://www.w3.org/2000/svg">
<path d="M35.0379 21.0123C31.8746 26.5023 29.8835 32.5884 29.19 38.8867C35.7338 35.8948 42.8447 34.3462 50.0398 34.3462C57.235 34.3462 64.3459 35.8948 70.8897 38.8867C70.3526 32.528 68.4926 26.3517 65.429 20.7542C61.9022 14.3253 56.9002 8.82553 50.8341 4.70692C44.2995 8.74936 38.8715 14.3523 35.0379 21.0123ZM42.3949 76.5223C44.4655 78.5901 46.7259 80.4586 49.1463 82.103C55.7423 78.0407 61.2079 72.3807 65.0379 65.6463C68.8678 58.9119 70.9385 51.3205 71.0584 43.5738C64.541 40.2225 57.3185 38.4743 49.9902 38.4743C42.6619 38.4743 35.4394 40.2225 28.922 43.5738V43.971C28.92 50.0085 30.109 55.9871 32.421 61.5643C34.7329 67.1415 38.1223 72.2077 42.3949 76.4726V76.5223ZM45.2245 84.2579C43.2103 82.7758 41.3118 81.1425 39.5454 79.3722C30.6007 70.4497 25.374 58.465 24.9208 45.8379C22.2322 47.5935 19.7304 49.6199 17.4546 51.8854C8.97836 60.3494 4.14674 71.7927 3.99157 83.7713C7.05306 85.3502 10.284 86.5762 13.6222 87.4256C24.2055 90.1213 35.4014 88.9815 45.2245 84.2082V84.2579ZM86.3582 88.5378C89.7035 87.6862 92.9411 86.4568 96.0087 84.8736V84.4664C96.0032 76.7877 94.0794 69.2321 90.4122 62.486C86.745 55.7399 81.4506 50.0172 75.01 45.8379C74.2976 58.0541 69.121 69.5824 60.4648 78.2303C58.1765 80.5143 55.6765 82.5758 52.9985 84.387C63.203 89.9107 75.1117 91.3925 86.3582 88.5378ZM98.9674 87.8626C91.2789 92.0629 82.6242 94.1751 73.8655 93.9887C65.1068 93.8022 56.5499 91.3237 49.047 86.8C41.6803 90.8321 33.4177 92.9455 25.0201 92.9455C16.6225 92.9455 8.35984 90.8321 0.993167 86.8L0.000318719 86.234C0.000318719 85.6581 0.000318719 85.0821 0.000318719 84.5062C-0.0232001 77.9257 1.25512 71.4056 3.76166 65.3214C6.2682 59.2371 9.95343 53.709 14.6051 49.0553C17.7013 45.969 21.1856 43.2985 24.9704 41.1111C25.4019 33.3224 27.6566 25.744 31.553 18.9866C35.9522 11.3662 42.2715 5.03214 49.881 0.615672L50.9334 0L51.9263 0.665323C59.0259 5.20149 64.871 11.4506 68.9238 18.8376C72.6831 25.6889 74.7749 33.3299 75.0298 41.1409C78.7967 43.3327 82.264 46.003 85.3455 49.0851C89.999 53.7276 93.6893 59.2443 96.2042 65.3179C98.7191 71.3916 100.009 77.9025 100 84.4764V85.3204C100 85.6382 100 85.9162 100 86.1645V87.3263L98.9674 87.8626Z" fill="#FEFEFE"/>
</svg>
