<svg xmlns="http://www.w3.org/2000/svg" xmlns:xlink="http://www.w3.org/1999/xlink" viewBox="0 0 181.56 226.77"><defs><style>.cls-1{fill:none;clip-rule:evenodd;}.cls-2{fill:#fefefe;}.cls-3{clip-path:url(#clip-path);}.cls-4{fill:url(#linear-gradient);}.cls-5{fill:#78b833;}.cls-11,.cls-13,.cls-5{fill-rule:evenodd;}.cls-6{clip-path:url(#clip-path-2);}.cls-7{fill:url(#linear-gradient-2);}.cls-8{clip-path:url(#clip-path-3);}.cls-9{fill:url(#linear-gradient-3);}.cls-10{fill:#2b2a29;}.cls-11,.cls-14{fill:#e31e24;}.cls-12{fill:#fff;}.cls-13{fill:#434242;}</style><clipPath id="clip-path"><path class="cls-1" d="M81.59,129.13A52.5,52.5,0,0,1,63.37,94.91a44.19,44.19,0,0,0-17.1,33,44.37,44.37,0,0,0,35.32,1.23"/></clipPath><linearGradient id="linear-gradient" x1="45.78" y1="124.74" x2="79.12" y2="104.2" gradientUnits="userSpaceOnUse"><stop offset="0" stop-color="#d7b56d"/><stop offset="1" stop-color="#af9778"/></linearGradient><clipPath id="clip-path-2"><path class="cls-1" d="M72.15,80.64a52.71,52.71,0,0,1,36.82.08A44.22,44.22,0,0,0,91.25,52.13a44.25,44.25,0,0,0-19.1,28.51"/></clipPath><linearGradient id="linear-gradient-2" x1="90.77" y1="91.5" x2="90.24" y2="29.35" gradientUnits="userSpaceOnUse"><stop offset="0" stop-color="#00a0e3"/><stop offset="1" stop-color="#fefefe"/></linearGradient><clipPath id="clip-path-3"><path class="cls-1" d="M97.54,129.48a44.32,44.32,0,0,0,37.13-.5,44.19,44.19,0,0,0-17.26-34.17,52.53,52.53,0,0,1-19.87,34.67"/></clipPath><linearGradient id="linear-gradient-3" x1="101.94" y1="103.1" x2="134.16" y2="128.03" gradientUnits="userSpaceOnUse"><stop offset="0" stop-color="#393185"/><stop offset="1" stop-color="#00a0e3"/></linearGradient></defs><g id="Layer_2" data-name="Layer 2"><g id="Layer_1-2" data-name="Layer 1"><path class="cls-2" d="M75.39,66A46.17,46.17,0,0,0,69.5,84a50.51,50.51,0,0,1,42,0A46.11,46.11,0,0,0,106,65.74,46.66,46.66,0,0,0,91.3,49.58,46.71,46.71,0,0,0,75.39,66m7.41,55.9a47,47,0,0,0,6.8,5.62,46.41,46.41,0,0,0,22.07-38.8,46.41,46.41,0,0,0-42.44,0v.4A46.22,46.22,0,0,0,82.8,121.85Zm2.85,7.79a49.63,49.63,0,0,1-5.72-4.92A50.24,50.24,0,0,1,65.2,91a47.37,47.37,0,0,0-7.52,6.09A46.22,46.22,0,0,0,44.12,129.2a45.81,45.81,0,0,0,9.7,3.68,46.55,46.55,0,0,0,31.83-3.24ZM127.08,134a45.87,45.87,0,0,0,9.72-3.69v-.41A46.41,46.41,0,0,0,115.65,91,50.24,50.24,0,0,1,101,123.62a51.43,51.43,0,0,1-7.52,6.2A46.54,46.54,0,0,0,127.08,134Zm12.7-.68a50.5,50.5,0,0,1-50.28-1.07,50.41,50.41,0,0,1-48.4,0l-1-.57c0-.58,0-1.16,0-1.74h0A50.24,50.24,0,0,1,54.81,94.24a50.78,50.78,0,0,1,10.44-8,50.15,50.15,0,0,1,6.63-22.28,50.7,50.7,0,0,1,18.46-18.5l1.06-.62,1,.67a50.6,50.6,0,0,1,17.12,18.3,50.08,50.08,0,0,1,6.15,22.46,50.87,50.87,0,0,1,10.39,8,50.24,50.24,0,0,1,14.76,35.64l0,.85c0,.32,0,.6,0,.85l0,1.17Z"/><g class="cls-3"><rect class="cls-4" x="46.27" y="94.91" width="35.32" height="37.3"/></g><path class="cls-5" d="M71.35,90a44.19,44.19,0,0,0,18.31,35,44.22,44.22,0,0,0,19.86-35,44.32,44.32,0,0,0-38.17,0"/><g class="cls-6"><rect class="cls-7" x="72.15" y="52.13" width="36.82" height="28.59"/></g><g class="cls-8"><rect class="cls-9" x="97.54" y="94.81" width="37.13" height="38.49"/></g><path class="cls-10" d="M61,150.24h.13v3.33H61a4.56,4.56,0,0,0-.89-2.21,2,2,0,0,0-1.62-.76,1.82,1.82,0,0,0-.75.14,1.67,1.67,0,0,0-.59.42,1.85,1.85,0,0,0-.4.61,2,2,0,0,0-.14.76,2.36,2.36,0,0,0,1.88,2.3l1,.35a3.87,3.87,0,0,1,1.76,1.07,2.66,2.66,0,0,1,.55,1.71,2.87,2.87,0,0,1-.89,2.16,2.71,2.71,0,0,1-1,.61,3.26,3.26,0,0,1-1.27.23,5.73,5.73,0,0,1-.87-.08c-.33-.07-.66-.16-1-.26l-.36-.1-.23,0c-.31,0-.46.14-.46.44h-.15v-3.55l.15,0a4.89,4.89,0,0,0,.33,1.33,3,3,0,0,0,.63,1,2.48,2.48,0,0,0,1.92.89,2.31,2.31,0,0,0,.89-.16,1.74,1.74,0,0,0,.69-.44,2.19,2.19,0,0,0,.46-.69,2.5,2.5,0,0,0,.16-.88,1.85,1.85,0,0,0-.59-1.43l-.13-.1-.16-.12a2.12,2.12,0,0,0-.48-.26l-.31-.11-.7-.26a10.38,10.38,0,0,1-1.38-.59,3.64,3.64,0,0,1-.9-.67,2.34,2.34,0,0,1-.51-.84,3.26,3.26,0,0,1-.15-1,2.52,2.52,0,0,1,.23-1.12,2.32,2.32,0,0,1,.61-.89,3,3,0,0,1,1-.59,3.51,3.51,0,0,1,1.2-.2h.33l.36,0c.12,0,.23.05.35.06l.3.07.43.13a.56.56,0,0,0,.23,0,.51.51,0,0,0,.53-.36"/><path class="cls-10" d="M70.7,150.55v-.14h3.22v.14a.78.78,0,0,0-.7.35A2,2,0,0,0,73,152v6.45c0,.13,0,.26,0,.39s0,.24,0,.34a1.43,1.43,0,0,0,.62.94,2.22,2.22,0,0,0,1.22.33,2.29,2.29,0,0,0,.92-.18,1.61,1.61,0,0,0,.66-.48,1.55,1.55,0,0,0,.33-.62,3.55,3.55,0,0,0,.09-.88V152a2,2,0,0,0-.23-1.1.87.87,0,0,0-.76-.35v-.14h2.3v.14c-.64,0-1,.49-1,1.45v6.29a3.93,3.93,0,0,1,0,.49c0,.16,0,.32,0,.45a2,2,0,0,1-.89,1.29,3.34,3.34,0,0,1-1.8.46,4.32,4.32,0,0,1-1.18-.17,3.23,3.23,0,0,1-1-.46A1.83,1.83,0,0,1,72,160a1,1,0,0,1-.21-.42,2,2,0,0,1-.12-.54,7.27,7.27,0,0,1,0-.73V152a2.26,2.26,0,0,0-.21-1.12.89.89,0,0,0-.75-.33"/><path class="cls-10" d="M89.15,150.81v4.34h.91A2.19,2.19,0,0,0,91,155a1.74,1.74,0,0,0,.69-.44,2.24,2.24,0,0,0,.46-.7,2.69,2.69,0,0,0,.16-.92,2,2,0,0,0-.57-1.53,2.37,2.37,0,0,0-1.56-.56Zm-2.29-.26v-.14H90.8l.55.06a2.82,2.82,0,0,1,1.69.78,2.19,2.19,0,0,1,.61,1.6,2.13,2.13,0,0,1-.79,1.76,3.33,3.33,0,0,1-2.17.67,4.4,4.4,0,0,1,.53.06,1.73,1.73,0,0,1,.43.1,1.66,1.66,0,0,1,.53.19,3.15,3.15,0,0,1,.48.27,2.38,2.38,0,0,1,.36.34,1.61,1.61,0,0,1,.24.43,4.41,4.41,0,0,1,.14.62c0,.23.06.52.09.85l.09,1.12a2.22,2.22,0,0,0,.28,1,.82.82,0,0,0,.72.31h0v.13H92.77l-.18-.14a.17.17,0,0,1-.09-.1,1.2,1.2,0,0,1-.12-.38,2.59,2.59,0,0,1-.08-.51l-.1-1.22a10.07,10.07,0,0,0-.17-1.28,2.6,2.6,0,0,0-.31-.75,1.73,1.73,0,0,0-.77-.6,2.87,2.87,0,0,0-1-.23h-.76v3.63a1.89,1.89,0,0,0,.23,1.1.87.87,0,0,0,.75.36v.13H86.86v-.13a.9.9,0,0,0,.76-.36,2.06,2.06,0,0,0,.24-1.1V152C87.85,151,87.52,150.55,86.86,150.55Z"/><path class="cls-10" d="M101.88,150.55v-.14h3.42v.14h-.08a.87.87,0,0,0-.54.16.55.55,0,0,0-.2.45,2.43,2.43,0,0,0,.24.84l1.75,4.11,1.8-4.11c.07-.17.13-.33.17-.46a1.48,1.48,0,0,0,0-.34.57.57,0,0,0-.24-.48,1.24,1.24,0,0,0-.68-.17h0v-.14h2.73v.14a1.31,1.31,0,0,0-.8.36,3.3,3.3,0,0,0-.71,1.09l-2.08,4.6v2.57a1.89,1.89,0,0,0,.23,1.1.82.82,0,0,0,.72.36v.13h-3.19l0-.13a.87.87,0,0,0,.75-.36,2.1,2.1,0,0,0,.21-1.1v-2.56L103.24,152a3.85,3.85,0,0,0-.64-1.09,1.21,1.21,0,0,0-.72-.36"/><path class="cls-10" d="M120.5,152.52,119.11,157H122Zm-4.25,8.11a1.37,1.37,0,0,0,1-.36,2.59,2.59,0,0,0,.65-1.1l3.16-9,3,9a2.7,2.7,0,0,0,.59,1.1,1.18,1.18,0,0,0,.83.36v.13H121.7v-.13h.07a1.06,1.06,0,0,0,.7-.21.72.72,0,0,0,.25-.58,3,3,0,0,0-.12-.67l-.52-1.8H119l-.58,1.8a2.93,2.93,0,0,0-.11.69.7.7,0,0,0,.24.57,1.07,1.07,0,0,0,.69.2h.06v.13h-3Z"/><path class="cls-11" d="M90.45,0A92.19,92.19,0,0,1,180.9,74.4L164,65.86,144.91,74.4A57.29,57.29,0,0,0,36,74.4L19.72,65.65,0,74.4A92.2,92.2,0,0,1,90.45,0"/><path class="cls-12" d="M156.17,52.69l-1.52-2.44,2.93-1.82,1.52,2.44a1.73,1.73,0,1,1-2.93,1.82m-3.36,7.71,2.6-5a3.7,3.7,0,0,0,4.7.38,4,4,0,0,0,1.22-5.84l-3.16-5.07-10.84,6.76,1.44,2.31,3.85-2.4,1,1.69-2.52,4.53Zm-7.56-11.77L147,47l-4.32-4.61,2.12-2L149,44.91l1.75-1.64-4.24-4.51,2-1.84,4.32,4.61,1.75-1.64-6.19-6.59L139.07,42Zm-9.19-9.24,7.75-10.15-2.16-1.65L136.78,34,137,24l-2.23-1.7L127,32.46l2.16,1.65,5.06-6.63L134,37.8Zm-14.77-10,8.1-10.52-2.83-1.13-5.49,7.75L122.24,16l-2-.78-5.67,7.68,1.33-9.41-2.83-1.13-1.32,13.23,2.69,1.06,5.3-7.32-1.16,9ZM100.2,21a3.88,3.88,0,0,1-3.36-4.63c.29-2.38,2-4,4.37-3.7s3.62,2.25,3.33,4.63A3.88,3.88,0,0,1,100.2,21Zm-.3,2.39a6.41,6.41,0,0,0,7.42-5.75A6.68,6.68,0,0,0,94.06,16,6.42,6.42,0,0,0,99.9,23.4Zm-23-2-2.27.44L73.16,14l2.3-.44a3.73,3.73,0,0,1,4.66,3.17A3.83,3.83,0,0,1,76.94,21.43Zm.47,2.35c3.91-.75,6.16-3.76,5.44-7.56s-3.93-5.74-7.86-5L70,12.19l2.41,12.54Zm-14.09,4.4c3.53-1.63,4.31-4.4,3-7.27L63.07,14l-2.51,1.17L63.75,22a3,3,0,1,1-5.44,2.53l-3.19-6.88-2.5,1.16,3.22,7C57.18,28.63,59.8,29.82,63.32,28.18Zm-15.07,6a3.88,3.88,0,0,1-5.62-1,3.87,3.87,0,0,1,.6-5.69c1.89-1.41,4.18-.87,5.61,1.05A3.88,3.88,0,0,1,48.25,34.13Zm1.45,1.93a6.41,6.41,0,0,0,1.38-9.28,6.41,6.41,0,0,0-9.29-1.31,6.41,6.41,0,0,0-1.4,9.29A6.42,6.42,0,0,0,49.7,36.06ZM33.24,41l-1.73,2.3-2.75-2.08,1.73-2.3A1.73,1.73,0,1,1,33.24,41Zm8.41.38L36,40.75a3.69,3.69,0,0,0-1.33-4.53,4,4,0,0,0-5.88,1l-3.61,4.76L35.4,49.65,37,47.48l-3.62-2.74,1.2-1.59,5.14.73ZM25.1,52.49l-1.5,2.45-2.92-1.8,1.5-2.44a1.72,1.72,0,1,1,2.92,1.79Zm4.42,6.09-3.89-2.39,1.71-2.77a4.11,4.11,0,1,0-7-4.3l-3.13,5.09L28.09,60.9Z"/><polygon class="cls-13" points="37.05 76.46 37.04 76.49 19.55 69.65 0.17 75.53 19.55 67.56 37.05 76.46"/><polygon class="cls-13" points="181.56 76.2 181.55 76.24 164.06 69.4 144.69 75.28 164.06 67.31 181.56 76.2"/><path class="cls-10" d="M138.07,166.64c2.07,0,3,1.38,3,4.35l0,21.48c0,3.09-.9,4.34-2.92,4.38v.39h19.15v-8.09l-.43,0c-.43,4.65-3.23,6.93-8.52,6.93h-3.45V181.75H147c3.83,0,5.81,1.51,6.28,4.65l.44-.05V175.81h-.44a4.82,4.82,0,0,1-1.63,3.44c-1.21,1-2.41,1.38-4.69,1.38h-2.07V167.42h2.24c3.31,0,4.86.34,6.28,1.46a6.23,6.23,0,0,1,2.54,4.78h.35v-7.45H138.07Zm-26,30.21v.39h6.85v-.39c-1.9,0-2.84-1.42-2.84-4.38V169.61l17.51,28.28V171c0-3,.95-4.35,2.93-4.35l0-.43h-6.85v.43c1.94,0,2.84,1.34,2.84,4.35v18.16l-13.9-22.94H112v.43c2,0,2.89,1.38,2.89,4.35v21.48C114.92,195.52,114.1,196.81,112,196.85ZM90.34,166.64c2.07,0,3,1.38,3,4.35l0,21.48c0,3.09-.91,4.34-2.93,4.38v.39h19.15v-8.09l-.43,0c-.43,4.65-3.23,6.93-8.52,6.93H97.19V181.75H99.3c3.83,0,5.81,1.51,6.28,4.65l.43-.05V175.81h-.43a4.83,4.83,0,0,1-1.64,3.44c-1.2,1-2.41,1.38-4.69,1.38H97.19V167.42h2.23c3.32,0,4.87.34,6.29,1.46a6.23,6.23,0,0,1,2.54,4.78h.34v-7.45H90.34Zm-16.82.78,3,0c3.87,0,6.37,2.37,6.37,6.24a6.34,6.34,0,0,1-6.63,6.67H73.52Zm-6.89-.78c2,0,3,1.42,3,4.35l0,21.48c0,3-.94,4.34-3,4.38v.39H76.4v-.39c-2.06,0-2.93-1.29-2.93-4.38V181.58l2.29,0a6.76,6.76,0,0,1,5.46,2.5c.82,1.2,1.21,2.71,1.42,6.06l.3,3.66a6.54,6.54,0,0,0,.6,2.67,3.52,3.52,0,0,0,.82.73h5.51v-.39h0c-2,0-2.84-1.2-3-4.08l-.26-3.36c-.22-4-.82-5.47-2.5-6.71a10.46,10.46,0,0,0-3-1.42,15.82,15.82,0,0,0-2.93-.48c5.51,0,8.91-2.84,8.91-7.23,0-3.87-2.62-6.58-6.88-7.14a28.33,28.33,0,0,0-3.45-.22H66.63Zm-21.69,0c2.07,0,3,1.38,3,4.35l0,21.48c0,3.09-.9,4.34-2.92,4.38v.39H64.18v-8.09l-.43,0c-.43,4.65-3.23,6.93-8.52,6.93H51.79V181.75h2.1c3.83,0,5.81,1.51,6.29,4.65l.43-.05V175.81h-.43a4.87,4.87,0,0,1-1.64,3.44c-1.2,1-2.41,1.38-4.69,1.38H51.79V167.42H54c3.32,0,4.87.34,6.29,1.46a6.19,6.19,0,0,1,2.53,4.78h.35v-7.45H44.94Zm-4.73-.94a1.56,1.56,0,0,1-1.59,1.07,1.7,1.7,0,0,1-.69-.13l-1.29-.38a19.88,19.88,0,0,0-4-.56c-5.29,0-9,3.48-9,8.39,0,4.69,2.32,7.14,8.82,9.42,1.76.65,2.8,1,3,1.08a9.57,9.57,0,0,1,1.46.77l.87.65a5.71,5.71,0,0,1,1.76,4.3,6.26,6.26,0,0,1-6.58,6.5c-4.57,0-8-3.83-8.65-9.72l-.44-.05v10.68l.44,0a1.21,1.21,0,0,1,1.37-1.34,6.23,6.23,0,0,1,1.77.39,20.28,20.28,0,0,0,5.63,1c5.56,0,9.52-3.7,9.52-9,0-4.09-2.16-6.67-6.93-8.35l-3-1c-3.75-1.34-5.64-3.62-5.64-6.89a5.64,5.64,0,0,1,5.64-5.81c3.87,0,6.58,3.19,7.53,8.91h.39v-10Z"/><path class="cls-14" d="M132.48,211.63a20.76,20.76,0,0,0,3.42-2.16c1.61-1.19,2.41-2.14,2.41-2.84q0-.42-.39-.42c-.77,0-1.81.71-3.13,2.13a11.73,11.73,0,0,0-2.31,3.29m-2.32,1a16.17,16.17,0,0,0-3.33,1.62,7.58,7.58,0,0,1-3.28,1.23c-.13,0-.21-.07-.21-.24s.15-.36.46-.41a9.7,9.7,0,0,0,3-1.31,14,14,0,0,1,3.53-1.54,11.6,11.6,0,0,1,3.35-4.12c1.81-1.54,3.35-2.32,4.62-2.32.94,0,1.41.41,1.41,1.21,0,1.05-1,2.2-3,3.43a21.29,21.29,0,0,1-4.49,2.17,2.68,2.68,0,0,0-.25,1.15,1.15,1.15,0,0,0,.64,1.18,4.44,4.44,0,0,0,1.21.15c.43,0,.64.12.64.32s-.73.48-2.18.48-2.3-.66-2.3-2A4.23,4.23,0,0,1,130.16,212.64Zm-10-2.5c3.23-2.74,5.5-4.12,6.81-4.12.84,0,1.25.4,1.25,1.19s-.94,1.95-2.82,3.76-2.82,2.92-2.82,3.3.21.57.62.6.61.14.61.31-.43.35-1.28.35-1.47-.43-1.47-1.31a4.8,4.8,0,0,1,1.42-2.77,37.32,37.32,0,0,1,2.63-2.67c.94-.89,1.41-1.44,1.41-1.62s-.11-.23-.32-.23c-.67,0-2.13.9-4.38,2.68a41.15,41.15,0,0,0-4.16,3.67c-1.16,1.21-1.86,1.82-2.11,1.82a.69.69,0,0,1-.51-.27.93.93,0,0,1-.23-.58c0-.27.82-1.36,2.44-3.28l2.91-3.45-4.52,3.68-3.35,2.57a8,8,0,0,1-3.9,1.72c-.15,0-.23-.07-.23-.21s.16-.36.5-.44a7.06,7.06,0,0,0,1.57-.53,32.42,32.42,0,0,0,5.26-3.77c2.38-1.93,4.09-3.4,5.14-4.43a6.2,6.2,0,0,1,.83-.63,1.73,1.73,0,0,1,.6-.11,1.09,1.09,0,0,1,.61.21.56.56,0,0,1,.31.48A27.52,27.52,0,0,1,120.18,210.14Zm-12.77,4.26c0,.32.34.48,1,.48.15,0,.23.1.23.3s-.4.35-1.17.35-1.33-.43-1.33-1.28,1.31-3.06,3.93-6.21l-4.82,4c-2.85,2.34-4.92,3.5-6.2,3.5-.14,0-.21-.07-.21-.24a.39.39,0,0,1,.36-.41,6.39,6.39,0,0,0,2-.72,50.43,50.43,0,0,0,4.87-3.58l5.4-4.53a2.75,2.75,0,0,1,1-.13c.41,0,.6.23.6.69s-.94,1.82-2.83,4S107.41,214,107.41,214.4Zm7.78-12.24a.76.76,0,0,1-.84-.87,1.62,1.62,0,0,1,.86-1.31,2.68,2.68,0,0,1,1.55-.53c.61,0,.92.33.92,1a1.45,1.45,0,0,1-.92,1.23A3.07,3.07,0,0,1,115.19,202.16Zm-1.94-7q-.69,0-5.44,5.38a78.29,78.29,0,0,0-5.77,7.08q11.52-9.37,11.53-12.18C113.57,195.2,113.46,195.11,113.25,195.11ZM98.35,209.8,94,213.08q-3.52,2.41-5.16,2.41a.19.19,0,0,1-.21-.21c0-.22.21-.36.65-.44a5.32,5.32,0,0,0,1.71-.63,37.15,37.15,0,0,0,4-2.7q2-1.48,4.32-3.29a57.51,57.51,0,0,1,7.24-8.54q5.11-5.12,6.86-5.11c.54,0,.81.29.81.86,0,1.49-1.73,3.85-5.21,7.11a84.48,84.48,0,0,1-7.17,6,10.77,10.77,0,0,0-2.24,2.84,7.45,7.45,0,0,0-1.39,3.15c0,.29.33.44,1,.44q.24,0,.24.27c0,.23-.32.34-.94.34A1.31,1.31,0,0,1,97,214.05,10.85,10.85,0,0,1,98.35,209.8ZM85.08,216a15.21,15.21,0,0,0-6.43,4.2c-1.93,2-2.9,3.71-2.9,5,0,.41.14.61.43.61Q77.88,225.8,85.08,216Zm2.69-1.06,1.12,0c.16,0,.24.1.24.29s-.28.35-.83.4l-1.11.05-4.92,6.1c-3,3.36-5,5.05-6.29,5.05-.58,0-.88-.4-.88-1.19q0-2.62,3.47-6.09a14.86,14.86,0,0,1,7.14-4.29l3.65-4.68-2.89,2.57c-1.76,1.46-3,2.19-3.6,2.19s-1.12-.53-1.12-1.57A5.82,5.82,0,0,1,83,210.52l2.15-2.71c-1.38,1.23-3,2.56-4.77,4-1.47,1.16-2.47,1.91-3,2.26A6.82,6.82,0,0,1,74,215.49c-.14,0-.21-.07-.21-.24a.41.41,0,0,1,.35-.41c1.48-.36,3.53-1.6,6.14-3.74l3.08-2.53,2-1.76a9.35,9.35,0,0,1,1.88-1.44,1.5,1.5,0,0,1,.88.31.93.93,0,0,1,.41.75l-2.78,3.23c-1.86,2.2-2.78,3.67-2.78,4.39,0,.22.12.32.35.32q1.07,0,5.17-3.91c2-1.92,3.69-3.63,5-5.13.27-.31.47-.46.59-.46a1.38,1.38,0,0,1,.7.23.7.7,0,0,1,.36.56.68.68,0,0,1-.23.42A98.81,98.81,0,0,0,87.77,214.92Zm-17-4.23a10.34,10.34,0,0,0,4.34-1.45c1.14-.75,1.7-1.38,1.7-1.9,0-.27-.17-.41-.51-.41C75,206.93,73.13,208.18,70.73,210.69Zm.53-3.36-4.72,4-3.23,2.56a7.2,7.2,0,0,1-3.79,1.62c-.13,0-.21-.07-.21-.24a.41.41,0,0,1,.35-.41c1.56-.36,3.65-1.65,6.3-3.86l5-4.19a64.71,64.71,0,0,0,5.57-5.73l4.94-5.64c.78-.93,1.32-1.4,1.64-1.4a.55.55,0,0,1,.62.62,5.71,5.71,0,0,1-1.52,2.65L80,199.78l-7,8.12c1.74-1.25,3-1.88,3.85-1.88a1.26,1.26,0,0,1,1.43,1.41c0,1.06-.93,2-2.8,2.72a11.58,11.58,0,0,1-4.23.93c.43,1,1,2.15,1.66,3.43a1.38,1.38,0,0,0,1.11.41c.16,0,.25.09.25.27s-.47.38-1.39.38a2,2,0,0,1-1.15-.33,14.27,14.27,0,0,1-2-3.5L68,213.87c-1,1.15-1.58,1.73-1.77,1.73-.5,0-.76-.29-.76-.88q0-.51,2.78-3.87Zm-6.58-1.18q0,1.89-2.79,4.44a20.5,20.5,0,0,1-7.06,4.16,23.93,23.93,0,0,1-8.06,1.39q-5.62,0-5.62-3.36c0-1.34,1.06-2.56,3.16-3.67a10.87,10.87,0,0,1,5-1.46c.48,0,.72.15.72.43s-.24.33-.74.4a15.93,15.93,0,0,0-4.14,1.24c-1.88.83-2.82,1.75-2.82,2.78,0,1.25,1.46,1.87,4.36,1.87A23.16,23.16,0,0,0,54.3,213a21.27,21.27,0,0,0,6.8-3.7c1.71-1.46,2.57-2.56,2.57-3.3s-1.16-1.21-3.48-1.48q-5.76-.67-6.45-.83-3.48-.85-3.48-3c0-1.82,1.36-3.56,4.08-5.2A33,33,0,0,1,62.83,192a29.39,29.39,0,0,1,7.23-1.21c2.32,0,3.48.71,3.48,2.15q0,1.84-3.23,4.36t-5.09,2.42c-1.06,0-1.59-.37-1.59-1.1s.61-1.33,1.82-2.15a5.41,5.41,0,0,1,2.69-1.16c.22,0,.34.07.34.21l-1.79,1q-1.8,1-1.86,1.47a.34.34,0,0,0,.3.12c.83,0,2.22-.57,4.15-1.71s3.06-2.21,3.06-3-.82-1-2.47-1a28.81,28.81,0,0,0-8,1.62,47.77,47.77,0,0,0-6.07,2.34c-3,1.41-4.52,2.68-4.52,3.83,0,.73.95,1.27,2.86,1.62l5.67.73c2.21.33,3.56.82,4,1.45A3.62,3.62,0,0,1,64.68,206.15Z"/></g></g></svg>