<svg width="123" height="168" viewBox="0 0 123 168" fill="none" xmlns="http://www.w3.org/2000/svg">
<path d="M47.6222 19.4724C44.6903 24.56 42.8447 30.2001 42.202 36.0368C48.2673 33.2641 54.8582 31.829 61.5271 31.829C68.1961 31.829 74.787 33.2641 80.8523 36.0368C80.3546 30.1441 78.6306 24.4205 75.791 19.2331C72.522 13.2755 67.8858 8.17873 62.2633 4.36196C56.2066 8.10814 51.1755 13.3005 47.6222 19.4724ZM54.4413 70.9141C56.3604 72.8304 58.4555 74.562 60.6989 76.0859C66.8126 72.3212 71.8786 67.0761 75.4284 60.8352C78.9783 54.5944 80.8976 47.5593 81.0087 40.3804C74.9679 37.2747 68.2735 35.6546 61.4811 35.6546C54.6888 35.6546 47.9943 37.2747 41.9535 40.3804V40.7485C41.9517 46.3435 43.0538 51.884 45.1966 57.0524C47.3395 62.2208 50.481 66.9157 54.4413 70.8681V70.9141ZM57.064 78.0828C55.197 76.7094 53.4373 75.1958 51.8002 73.5552C43.5095 65.2866 38.665 54.1802 38.2449 42.4785C35.7529 44.1055 33.4341 45.9834 31.3247 48.0828C23.4683 55.9266 18.99 66.5312 18.8462 77.6319C21.6838 79.0951 24.6785 80.2312 27.7725 81.0184C37.582 83.5165 47.9591 82.4602 57.064 78.0368V78.0828ZM95.1897 82.0491C98.2904 81.2598 101.291 80.1206 104.135 78.6534V78.2761C104.129 71.1601 102.346 64.1582 98.9472 57.9066C95.5482 51.6549 90.6409 46.3516 84.6713 42.4785C84.011 53.7994 79.213 64.4828 71.1897 72.4969C69.0688 74.6135 66.7516 76.524 64.2695 78.2025C73.7277 83.3214 84.7656 84.6945 95.1897 82.0491ZM106.877 81.4233C99.7506 85.3158 91.7288 87.2732 83.6106 87.1004C75.4924 86.9277 67.5611 84.6308 60.6069 80.4387C53.7789 84.1752 46.1205 86.1337 38.337 86.1337C30.5534 86.1337 22.895 84.1752 16.067 80.4387L15.1468 79.9141C15.1468 79.3804 15.1468 78.8466 15.1468 78.3129C15.125 72.2147 16.3098 66.1724 18.6331 60.5341C20.9563 54.8958 24.3721 49.7728 28.6836 45.4601C31.5534 42.6 34.7829 40.1253 38.291 38.0982C38.6908 30.8803 40.7807 23.8573 44.3922 17.5951C48.4697 10.5332 54.3269 4.66335 61.3799 0.570551L62.3554 0L63.2756 0.616563C69.8561 4.82028 75.2738 10.6114 79.0302 17.4571C82.5146 23.8062 84.4535 30.8872 84.6897 38.1258C88.1811 40.157 91.3949 42.6315 94.2511 45.4877C98.5643 49.79 101.985 54.9024 104.316 60.5309C106.647 66.1594 107.842 72.1932 107.834 78.2853V79.0675C107.834 79.362 107.834 79.6196 107.834 79.8497V80.9264L106.877 81.4233Z" fill="#FEFEFE"/>
<mask id="mask0_50_234" style="mask-type:luminance" maskUnits="userSpaceOnUse" x="20" y="46" width="34" height="35">
<path d="M53.3273 77.5675C43.9254 69.5941 37.9271 58.3283 36.5604 46.0767C31.8893 49.692 28.0619 54.2814 25.3443 59.5258C22.6268 64.7703 21.0843 70.5438 20.8242 76.4448C25.8754 78.8501 31.3669 80.1918 36.9582 80.3865C42.5494 80.5812 48.121 79.6248 53.3273 77.5767" fill="white"/>
</mask>
<g mask="url(#mask0_50_234)">
<path d="M53.3273 46.0767H20.8242V80.4018H53.3273V46.0767Z" fill="url(#paint0_linear_50_234)"/>
</g>
<path fill-rule="evenodd" clip-rule="evenodd" d="M43.9043 41.5583C44.022 47.8661 45.6057 54.0599 48.5301 59.65C51.4545 65.2402 55.6395 70.0732 60.754 73.7669C66.1309 70.2266 70.5911 65.4612 73.7682 59.862C76.9453 54.2629 78.7486 47.9899 79.0301 41.5583C73.545 38.9413 67.5445 37.5831 61.4672 37.5831C55.3898 37.5831 49.3893 38.9413 43.9043 41.5583Z" fill="#78B833"/>
<mask id="mask1_50_234" style="mask-type:luminance" maskUnits="userSpaceOnUse" x="44" y="6" width="35" height="28">
<path d="M44.6406 32.9448C55.5767 28.8955 67.6056 28.9216 78.5241 33.0184C76.7663 22.4429 70.9063 12.9882 62.2173 6.70862C57.6882 9.69108 53.8004 13.5481 50.7821 18.0535C47.7638 22.5588 45.6758 27.6216 44.6406 32.9448Z" fill="white"/>
</mask>
<g mask="url(#mask1_50_234)">
<path d="M78.5241 6.70862H44.6406V33.0184H78.5241V6.70862Z" fill="url(#paint1_linear_50_234)"/>
</g>
<mask id="mask2_50_234" style="mask-type:luminance" maskUnits="userSpaceOnUse" x="68" y="45" width="35" height="37">
<path d="M68.0039 77.8895C73.3937 80.2886 79.2397 81.4899 85.1388 81.4105C91.0378 81.331 96.8494 79.9728 102.173 77.4294C102.052 71.3325 100.562 65.3408 97.8127 59.8978C95.0633 54.4547 91.125 49.6997 86.2892 45.9846C84.6351 58.6132 78.064 70.0787 68.0039 77.8895Z" fill="white"/>
</mask>
<g mask="url(#mask2_50_234)">
<path d="M102.173 45.9846H68.0039V81.4049H102.173V45.9846Z" fill="url(#paint2_linear_50_234)"/>
</g>
<path d="M34.3799 96.9938H34.4996V100.058H34.3799C34.292 99.3197 34.0093 98.6179 33.5609 98.0245C33.3838 97.8002 33.1569 97.6202 32.8981 97.4988C32.6393 97.3774 32.3559 97.3179 32.0701 97.3251C31.8336 97.3188 31.5983 97.3627 31.3799 97.4539C31.1729 97.5415 30.9875 97.6735 30.837 97.8404C30.6783 98.0013 30.5531 98.1921 30.4689 98.4018C30.3809 98.6243 30.3371 98.8619 30.3401 99.1012C30.3423 99.5988 30.5154 100.081 30.8303 100.466C31.1452 100.851 31.5829 101.117 32.0701 101.218L32.9904 101.54C33.6093 101.716 34.169 102.056 34.61 102.524C34.9561 102.974 35.135 103.531 35.1161 104.098C35.1266 104.468 35.0591 104.837 34.918 105.179C34.7769 105.522 34.5654 105.83 34.2971 106.086C34.035 106.338 33.7209 106.529 33.3769 106.647C33.0053 106.795 32.608 106.867 32.2082 106.859C31.9398 106.855 31.6722 106.83 31.4076 106.785C31.1039 106.721 30.8002 106.638 30.4873 106.546L30.156 106.454H29.9444C29.6591 106.454 29.5211 106.583 29.5211 106.859H29.383V103.592H29.5211C29.5643 104.012 29.6666 104.424 29.8247 104.816C29.955 105.158 30.1521 105.471 30.4045 105.736C30.6203 105.995 30.8907 106.202 31.1962 106.344C31.5016 106.485 31.8347 106.557 32.1714 106.555C32.4514 106.561 32.7297 106.51 32.9904 106.408C33.2312 106.325 33.4489 106.187 33.6253 106.003C33.8056 105.82 33.9493 105.605 34.0487 105.368C34.146 105.109 34.1959 104.835 34.1959 104.558C34.2057 104.313 34.1623 104.068 34.0686 103.841C33.9749 103.614 33.8331 103.409 33.653 103.242L33.5333 103.15L33.3861 103.04C33.2498 102.941 33.1013 102.861 32.9444 102.801L32.6591 102.699L32.0149 102.46C31.5791 102.31 31.1546 102.129 30.745 101.917C30.4387 101.756 30.1593 101.548 29.9168 101.301C29.7074 101.079 29.5474 100.816 29.4474 100.528C29.3538 100.23 29.3073 99.9194 29.3094 99.6073C29.3 99.2521 29.3725 98.8995 29.5211 98.5766C29.6412 98.2633 29.8335 97.9827 30.0824 97.7576C30.3509 97.5184 30.6635 97.334 31.0026 97.2147C31.3572 97.0895 31.7309 97.0272 32.1069 97.0306H32.4106H32.7419C32.8523 97.0306 32.9536 97.0766 33.064 97.0858L33.3401 97.1503L33.7358 97.2699C33.8056 97.2845 33.8776 97.2845 33.9474 97.2699C34.0543 97.2787 34.1611 97.2507 34.2498 97.1904C34.3386 97.1301 34.404 97.0412 34.4352 96.9386" fill="#1B1B1B"/>
<path d="M43.3047 97.2791V97.1503H46.2679V97.2791C46.1416 97.2713 46.0156 97.297 45.9025 97.3535C45.7894 97.4101 45.6932 97.4955 45.6237 97.6012C45.461 97.9124 45.3908 98.2636 45.4213 98.6135V104.549C45.4213 104.669 45.4213 104.788 45.4213 104.908C45.4213 105.028 45.4213 105.129 45.4213 105.221C45.4529 105.396 45.5197 105.563 45.6178 105.712C45.7159 105.861 45.8431 105.988 45.9918 106.086C46.3287 106.294 46.7188 106.399 47.1145 106.39C47.4051 106.393 47.6934 106.337 47.9611 106.224C48.1982 106.131 48.4073 105.979 48.5685 105.782C48.712 105.618 48.8159 105.423 48.8722 105.212C48.9334 104.946 48.9613 104.674 48.955 104.402V98.6135C48.9826 98.2627 48.9092 97.9114 48.7433 97.6012C48.6632 97.493 48.5572 97.4068 48.4349 97.3505C48.3127 97.2943 48.1782 97.2697 48.044 97.2791V97.1503H50.1605V97.2791C49.5716 97.2791 49.2403 97.73 49.2403 98.6135V104.402C49.2497 104.552 49.2497 104.703 49.2403 104.853C49.2403 105 49.2403 105.147 49.2403 105.267C49.1907 105.51 49.0926 105.74 48.9519 105.944C48.8111 106.148 48.6307 106.321 48.4213 106.454C47.9203 106.749 47.3459 106.896 46.7648 106.877C46.3974 106.876 46.0319 106.823 45.6789 106.721C45.3502 106.633 45.0389 106.49 44.7587 106.298C44.6599 106.201 44.5734 106.093 44.501 105.975C44.4068 105.864 44.3406 105.731 44.3078 105.589C44.2481 105.429 44.2109 105.262 44.1973 105.092C44.1861 104.868 44.1861 104.644 44.1973 104.42V98.6135C44.222 98.259 44.1555 97.9042 44.0041 97.5828C43.9218 97.4806 43.8161 97.3996 43.696 97.3468C43.5759 97.2939 43.4448 97.2707 43.3139 97.2791" fill="#1B1B1B"/>
<path d="M60.2851 97.5184V101.512H61.1225C61.4175 101.53 61.7128 101.483 61.9875 101.374C62.2284 101.292 62.4461 101.153 62.6225 100.969C62.8029 100.783 62.9465 100.565 63.0458 100.325C63.1439 100.054 63.1937 99.7671 63.1931 99.4785C63.2096 99.2201 63.1714 98.9611 63.081 98.7185C62.9906 98.4759 62.8501 98.2551 62.6685 98.0705C62.2676 97.7315 61.7579 97.5486 61.2329 97.5552L60.2851 97.5184ZM58.1777 97.2791V97.1503H61.8035L62.3096 97.2055C62.8943 97.2618 63.4426 97.5149 63.8649 97.9233C64.0525 98.1184 64.1989 98.3494 64.2954 98.6023C64.3918 98.8553 64.4363 99.1251 64.4262 99.3957C64.441 99.7038 64.3829 100.011 64.2566 100.293C64.1303 100.574 63.9393 100.822 63.6992 101.015C63.1264 101.448 62.4196 101.667 61.7023 101.632C61.8658 101.64 62.0287 101.659 62.19 101.687C62.3253 101.701 62.4583 101.732 62.5857 101.779C62.7571 101.809 62.922 101.868 63.0734 101.954C63.2277 102.024 63.3755 102.107 63.5152 102.202C63.6362 102.295 63.7472 102.4 63.8464 102.515C63.9399 102.635 64.0144 102.769 64.0673 102.911C64.1239 103.098 64.167 103.289 64.1961 103.482C64.1961 103.693 64.2514 103.96 64.279 104.264L64.3618 105.294C64.3737 105.617 64.462 105.933 64.6195 106.215C64.6973 106.314 64.7987 106.392 64.9144 106.442C65.0302 106.491 65.1566 106.512 65.282 106.5V106.62H63.6164L63.4507 106.491C63.4314 106.482 63.4141 106.469 63.3998 106.453C63.3856 106.437 63.3747 106.419 63.3679 106.399C63.3119 106.289 63.2745 106.171 63.2575 106.049C63.2174 105.895 63.1927 105.738 63.1839 105.58L63.0918 104.457C63.0649 104.061 63.0127 103.668 62.9354 103.279C62.877 103.036 62.7808 102.803 62.6501 102.589C62.4718 102.341 62.2258 102.149 61.9415 102.037C61.65 101.912 61.3383 101.84 61.0213 101.825H60.3219V105.166C60.2882 105.517 60.362 105.87 60.5336 106.178C60.6118 106.286 60.7159 106.373 60.8365 106.431C60.9571 106.489 61.0902 106.516 61.2237 106.509V106.629H58.1777V106.509C58.3125 106.515 58.4466 106.488 58.5685 106.43C58.6904 106.372 58.7963 106.286 58.8771 106.178C59.0433 105.868 59.1198 105.517 59.098 105.166V98.6135C59.0888 97.6932 58.7851 97.2791 58.1777 97.2791Z" fill="#1B1B1B"/>
<path d="M72 97.2791V97.1503H75.1472V97.2791H75.0736C74.8962 97.2717 74.7214 97.3235 74.5767 97.4263C74.5159 97.4763 74.4677 97.5398 74.4357 97.6116C74.4038 97.6835 74.389 97.7619 74.3926 97.8405C74.419 98.1093 74.4938 98.3712 74.6135 98.6135L76.2239 102.396L77.8804 98.6135C77.9448 98.457 78 98.3098 78.0368 98.1901C78.0488 98.0862 78.0488 97.9812 78.0368 97.8773C78.0391 97.7912 78.0201 97.7058 77.9816 97.6288C77.9431 97.5517 77.8862 97.4854 77.816 97.4355C77.6267 97.3243 77.4095 97.27 77.1902 97.2791V97.1503H79.7025V97.2791C79.4263 97.3016 79.1663 97.4186 78.9663 97.6104C78.6841 97.8981 78.462 98.2391 78.3129 98.6135L76.3988 102.847V105.212C76.3651 105.563 76.4389 105.916 76.6104 106.224C76.6831 106.331 76.7822 106.418 76.8983 106.476C77.0143 106.534 77.1434 106.562 77.273 106.555V106.675H74.3374V106.555C74.471 106.562 74.6041 106.535 74.7247 106.477C74.8452 106.42 74.9494 106.332 75.0276 106.224C75.1825 105.91 75.2493 105.56 75.2209 105.212V102.856L73.2515 98.6135C73.1118 98.2489 72.9128 97.91 72.6626 97.6104C72.486 97.4276 72.2522 97.3107 72 97.2791Z" fill="#1B1B1B"/>
<path d="M89.1337 99.092L87.8546 103.215H90.5141L89.1337 99.092ZM85.2227 106.555C85.3904 106.564 85.5582 106.539 85.7162 106.482C85.8742 106.426 86.0193 106.338 86.1429 106.224C86.4237 105.942 86.6293 105.594 86.7411 105.212L89.649 96.9294L92.4098 105.212C92.5092 105.587 92.6952 105.934 92.9527 106.224C93.052 106.327 93.1705 106.409 93.3016 106.466C93.4327 106.523 93.5737 106.553 93.7165 106.555V106.675H90.238V106.555H90.3024C90.5333 106.569 90.7616 106.501 90.9466 106.362C91.023 106.296 91.0834 106.214 91.1233 106.122C91.1631 106.029 91.1814 105.929 91.1766 105.828C91.1633 105.619 91.1263 105.412 91.0662 105.212L90.5877 103.555H87.7533L87.2196 105.212C87.1606 105.419 87.1267 105.632 87.1184 105.847C87.1125 105.945 87.1294 106.044 87.1677 106.135C87.206 106.226 87.2647 106.306 87.3392 106.371C87.5233 106.504 87.7476 106.569 87.9742 106.555H88.0294V106.675H85.2687L85.2227 106.555Z" fill="#1B1B1B"/>
<path d="M105.304 112.086C107.209 112.086 108.064 113.356 108.064 116.089V135.856C108.064 138.699 107.236 139.85 105.377 139.887V140.245H123V132.801H122.604C122.209 137.08 119.632 139.178 114.764 139.178H111.589V125.991H113.521C117.046 125.991 118.868 127.38 119.301 130.27L119.706 130.224V120.525H119.301C119.279 121.126 119.134 121.718 118.876 122.262C118.618 122.806 118.252 123.292 117.801 123.69C116.687 124.61 115.583 124.96 113.485 124.96H111.58V112.804H113.641C116.687 112.804 118.113 113.117 119.42 114.147C120.116 114.657 120.687 115.318 121.092 116.08C121.496 116.841 121.724 117.684 121.758 118.546H122.08V111.69H105.304V112.086ZM81.3773 139.887V140.245H87.681V139.887C85.9325 139.887 85.0675 138.58 85.0675 135.856V114.819L101.181 140.844V116.098C101.181 113.337 102.055 112.095 103.877 112.095V111.699H97.5736V112.095C99.3589 112.095 100.187 113.328 100.187 116.098V132.81L87.3957 111.699H81.3129V112.095C83.1534 112.095 83.9724 113.365 83.9724 116.098V135.865C84 138.663 83.2454 139.85 81.3129 139.887H81.3773ZM61.3804 112.086C63.2853 112.086 64.1411 113.356 64.1411 116.089V135.856C64.1411 138.699 63.3037 139.85 61.4448 139.887V140.245H79.0675V132.801H78.6718C78.2761 137.08 75.6994 139.178 70.8313 139.178H67.6841V125.991H69.6258C73.1503 125.991 74.9724 127.38 75.4049 130.27L75.8006 130.224V120.525H75.4049C75.3812 121.127 75.2352 121.718 74.9757 122.263C74.7163 122.807 74.3488 123.293 73.8957 123.69C72.7914 124.61 71.6779 124.96 69.5798 124.96H67.6841V112.804H69.7362C72.7914 112.804 74.2178 113.117 75.5245 114.147C76.2199 114.657 76.7912 115.318 77.1959 116.08C77.6006 116.841 77.8283 117.684 77.862 118.546H78.1748V111.69H61.3804V112.086ZM45.9018 112.804H48.6626C52.2239 112.804 54.5245 114.985 54.5245 118.546C54.5679 119.36 54.4401 120.175 54.1493 120.937C53.8585 121.699 53.4112 122.391 52.8363 122.969C52.2614 123.548 51.5717 123.999 50.8116 124.294C50.0515 124.59 49.2379 124.723 48.4233 124.684H45.9018V112.804ZM39.5613 112.086C41.4018 112.086 42.3221 113.393 42.3221 116.089V135.856C42.3221 138.617 41.4571 139.85 39.5613 139.887V140.245H48.5521V139.887C46.6564 139.887 45.8558 138.699 45.8558 135.856V125.834H47.9632C48.9213 125.805 49.8734 125.997 50.7449 126.396C51.6165 126.795 52.3841 127.39 52.9877 128.135C53.7423 129.239 54.1012 130.629 54.2945 133.712L54.5706 137.08C54.5793 137.929 54.7674 138.766 55.1227 139.537C55.3375 139.799 55.5922 140.026 55.8773 140.209H60.9479V139.85C59.1074 139.85 58.3344 138.745 58.1871 136.095L57.9478 133.003C57.7454 129.322 57.1932 127.969 55.6472 126.828C54.8024 126.249 53.8704 125.807 52.8865 125.522C52.0036 125.29 51.1008 125.142 50.1902 125.08C55.2607 125.08 58.3896 122.466 58.3896 118.426C58.3896 114.865 55.9785 112.371 52.0583 111.856C51.0051 111.724 49.9449 111.656 48.8834 111.653H39.5613V112.086ZM19.6012 112.086C21.5061 112.086 22.362 113.356 22.362 116.089V135.856C22.362 138.699 21.5337 139.85 19.6748 139.887V140.245H37.3067V132.801H36.911C36.5153 137.08 33.9386 139.178 29.0706 139.178H25.9049V125.991H27.8374C31.362 125.991 33.184 127.38 33.6258 130.27L34.0215 130.224V120.525H33.6258C33.5999 121.127 33.453 121.717 33.1937 122.261C32.9344 122.805 32.568 123.291 32.1166 123.69C31.0123 124.61 29.8988 124.96 27.8006 124.96H25.9049V112.804H27.9387C30.9939 112.804 32.4202 113.117 33.727 114.147C34.4226 114.657 34.9936 115.317 35.3969 116.079C35.8002 116.841 36.0253 117.684 36.0552 118.546H36.3773V111.69H19.6012V112.086ZM15.2485 111.221C15.1489 111.524 14.9509 111.786 14.6859 111.964C14.4209 112.143 14.104 112.228 13.7853 112.206C13.5676 112.21 13.3513 112.17 13.1503 112.086L11.9632 111.736C10.7569 111.44 9.52352 111.267 8.28221 111.221C3.41411 111.221 0 114.423 0 118.942C0 123.258 2.13497 125.512 8.11656 127.61C9.7362 128.209 10.6933 128.531 10.8773 128.604C11.3447 128.801 11.7942 129.038 12.2209 129.313L13.0215 129.911C13.5537 130.42 13.9729 131.036 14.252 131.717C14.531 132.399 14.6636 133.132 14.6411 133.868C14.6729 134.668 14.5374 135.467 14.2434 136.212C13.9494 136.957 13.5032 137.632 12.9334 138.195C12.3636 138.758 11.6826 139.196 10.9341 139.481C10.1855 139.766 9.38576 139.891 8.58589 139.85C4.38037 139.85 1.22393 136.325 0.625767 130.905L0.220859 130.859V140.687H0.625767C0.605809 140.518 0.624932 140.346 0.681662 140.186C0.738393 140.025 0.831219 139.88 0.952998 139.761C1.07478 139.642 1.22226 139.552 1.3841 139.499C1.54594 139.446 1.71781 139.43 1.8865 139.454C2.44404 139.494 2.99279 139.615 3.51534 139.813C5.1902 140.363 6.93453 140.673 8.69632 140.733C13.8129 140.733 17.4571 137.328 17.4571 132.451C17.4571 128.687 15.4693 126.313 11.0798 124.767L8.31902 123.847C4.8681 122.614 3.12884 120.515 3.12884 117.506C3.10789 116.812 3.22665 116.12 3.47809 115.472C3.72953 114.824 4.10851 114.233 4.59257 113.735C5.07662 113.236 5.65589 112.84 6.29601 112.569C6.93613 112.298 7.62407 112.159 8.31902 112.16C11.8804 112.16 14.3742 115.095 15.2485 120.359H15.6074V111.156L15.2485 111.221Z" fill="#1B1B1B"/>
<path d="M100.158 153.488C101.269 152.929 102.323 152.263 103.305 151.5C104.786 150.405 105.523 149.531 105.523 148.887C105.523 148.629 105.403 148.5 105.164 148.5C104.455 148.5 103.498 149.153 102.283 150.46C101.406 151.339 100.687 152.364 100.158 153.488ZM98.0227 154.408C96.9475 154.786 95.9193 155.286 94.9583 155.899C94.0543 156.507 93.0206 156.894 91.9398 157.031C91.8202 157.031 91.7466 156.966 91.7466 156.81C91.7466 156.653 91.8846 156.479 92.1699 156.433C93.1518 156.19 94.0853 155.782 94.9306 155.227C95.943 154.607 97.0362 154.13 98.1791 153.81C98.8997 152.325 99.955 151.027 101.262 150.018C102.928 148.601 104.345 147.883 105.513 147.883C106.378 147.883 106.811 148.261 106.811 148.997C106.811 149.963 105.891 151.021 104.05 152.153C102.756 152.979 101.369 153.649 99.9184 154.15C99.7642 154.482 99.6856 154.843 99.6883 155.209C99.6604 155.428 99.7022 155.652 99.8079 155.846C99.9136 156.041 100.078 156.198 100.277 156.294C100.64 156.391 101.015 156.438 101.391 156.433C101.786 156.433 101.98 156.543 101.98 156.727C101.98 156.911 101.308 157.169 99.9736 157.169C98.6392 157.169 97.857 156.561 97.857 155.328C97.8758 155.019 97.9314 154.713 98.0227 154.417V154.408ZM88.8202 152.107C91.7926 149.586 93.8816 148.316 95.0871 148.316C95.8601 148.316 96.2374 148.684 96.2374 149.411C96.2374 150.138 95.3724 151.206 93.6423 152.871C91.9122 154.537 91.0472 155.558 91.0472 155.908C91.0472 156.258 91.2405 156.433 91.6178 156.46C91.9951 156.488 92.1791 156.589 92.1791 156.745C92.1791 156.902 91.7834 157.067 91.0012 157.067C90.219 157.067 89.6484 156.672 89.6484 155.862C89.7888 154.891 90.2485 153.994 90.9552 153.313C91.7203 152.454 92.528 151.634 93.3754 150.856C94.2405 150.037 94.673 149.531 94.673 149.365C94.673 149.199 94.5717 149.153 94.3785 149.153C93.7619 149.153 92.4184 149.982 90.3478 151.62C88.9972 152.658 87.7183 153.786 86.5196 154.997C85.4521 156.11 84.8079 156.672 84.5779 156.672C84.4864 156.667 84.397 156.642 84.316 156.599C84.235 156.556 84.1642 156.496 84.1086 156.423C83.9787 156.275 83.9039 156.087 83.8969 155.89C83.8969 155.641 84.6515 154.638 86.1423 152.871L88.8202 149.696L84.6607 153.083L81.5779 155.448C80.5467 156.29 79.3064 156.837 77.9889 157.031C77.8509 157.031 77.7773 156.966 77.7773 156.837C77.7773 156.709 77.9245 156.506 78.2374 156.433C78.7365 156.327 79.2214 156.164 79.6822 155.945C81.4074 154.953 83.0289 153.79 84.5227 152.475C86.7129 150.699 88.2865 149.347 89.2527 148.399C89.4906 148.184 89.7461 147.99 90.0165 147.819C90.1931 147.753 90.3801 147.719 90.5687 147.718C90.771 147.724 90.9667 147.791 91.13 147.911C91.2129 147.952 91.2831 148.015 91.3333 148.093C91.3834 148.171 91.4118 148.26 91.4153 148.353C90.6714 149.682 89.809 150.942 88.8386 152.117L88.8202 152.107ZM77.0687 156.028C77.0687 156.322 77.3816 156.469 77.9889 156.469C78.127 156.469 78.2006 156.561 78.2006 156.745C78.2006 156.929 77.8325 157.067 77.1239 157.067C76.4153 157.067 75.9 156.672 75.9 155.89C75.9 155.107 77.1055 153.074 79.5165 150.175L75.081 153.856C72.4583 156.009 70.5533 157.077 69.3754 157.077C69.2466 157.077 69.1822 157.012 69.1822 156.856C69.1771 156.762 69.2089 156.67 69.2709 156.6C69.3328 156.529 69.4199 156.486 69.5135 156.479C70.1597 156.362 70.7818 156.138 71.354 155.816C72.9123 154.808 74.4089 153.708 75.8356 152.521L80.8049 148.353C81.1016 148.257 81.4136 148.216 81.7251 148.233C82.1024 148.233 82.2773 148.445 82.2773 148.868C82.2773 149.291 81.4122 150.543 79.673 152.549C77.9337 154.555 77.0871 155.669 77.0871 156.037L77.0687 156.028ZM84.2282 144.764C84.1212 144.776 84.0128 144.764 83.9113 144.728C83.8099 144.692 83.7182 144.632 83.6433 144.555C83.5685 144.478 83.5126 144.384 83.48 144.281C83.4473 144.178 83.4389 144.07 83.4552 143.963C83.4743 143.712 83.557 143.469 83.6954 143.258C83.8338 143.048 84.0235 142.875 84.2466 142.758C84.6595 142.45 85.1583 142.28 85.673 142.27C86.2343 142.27 86.5196 142.574 86.5196 143.19C86.4986 143.439 86.4082 143.677 86.2585 143.877C86.1088 144.078 85.9059 144.232 85.673 144.322C85.2467 144.598 84.7539 144.754 84.2466 144.773L84.2282 144.764ZM82.4429 138.322C82.0196 138.322 80.3509 139.972 77.4368 143.273C75.5416 145.34 73.7686 147.515 72.127 149.788C79.1944 144.04 82.7313 140.304 82.7374 138.58C82.7558 138.368 82.6546 138.285 82.4613 138.285L82.4429 138.322ZM68.7497 151.804L64.7466 154.822C62.5871 156.301 61.0043 157.04 59.9981 157.04C59.972 157.043 59.9456 157.04 59.9208 157.031C59.8961 157.022 59.8736 157.008 59.855 156.99C59.8364 156.971 59.8223 156.949 59.8136 156.924C59.8049 156.899 59.8019 156.873 59.8049 156.847C59.8049 156.644 59.9981 156.515 60.403 156.442C60.957 156.34 61.4894 156.144 61.9767 155.862C63.2562 155.114 64.4858 154.284 65.6576 153.377C66.8846 152.469 68.2098 151.46 69.6331 150.35C71.5931 147.52 73.8245 144.888 76.2957 142.491C79.4306 139.35 81.5349 137.782 82.6086 137.788C83.1055 137.788 83.354 138.055 83.354 138.58C83.354 139.951 81.7619 142.123 78.5595 145.123C76.4637 147.084 74.2609 148.927 71.9613 150.644C71.1318 151.393 70.4348 152.277 69.9 153.258C69.2531 154.111 68.815 155.104 68.6208 156.156C68.6208 156.423 68.9245 156.561 69.5411 156.561C69.6883 156.561 69.7619 156.644 69.7619 156.81C69.7619 157.021 69.4675 157.123 68.8969 157.123C68.7054 157.156 68.5089 157.142 68.3239 157.082C68.1389 157.023 67.9711 156.92 67.8346 156.781C67.6981 156.643 67.5971 156.474 67.5401 156.288C67.4832 156.102 67.4719 155.906 67.5073 155.715C67.6462 154.339 68.0692 153.007 68.7497 151.804ZM56.538 157.509C54.2675 158.27 52.2301 159.601 50.6208 161.374C48.8448 163.215 47.9521 164.788 47.9521 165.975C47.9521 166.353 48.081 166.537 48.3478 166.537C49.3908 166.531 52.1208 163.521 56.538 157.509ZM59.0135 156.534H60.0441C60.1914 156.534 60.265 156.626 60.265 156.801C60.265 156.975 60.0073 157.123 59.5012 157.169L58.4797 157.215L53.9521 162.828C51.1914 165.92 49.3509 167.475 48.1638 167.475C47.63 167.475 47.354 167.107 47.354 166.38C47.354 164.773 48.4184 162.905 50.5472 160.776C52.3162 158.861 54.596 157.491 57.1178 156.828L60.4767 152.521L57.8172 154.887C56.1975 156.23 55.0564 156.902 54.5043 156.902C53.9521 156.902 53.4736 156.414 53.4736 155.457C53.5428 154.366 53.9442 153.322 54.6239 152.466L56.6024 149.972C55.3325 151.104 53.8417 152.328 52.2129 153.653C50.8601 154.721 49.9398 155.411 49.4521 155.733C48.554 156.444 47.4783 156.896 46.3417 157.04C46.2129 157.04 46.1484 156.975 46.1484 156.819C46.1475 156.728 46.1795 156.639 46.2388 156.57C46.298 156.501 46.3803 156.455 46.4705 156.442C47.8325 156.11 49.719 154.969 52.1208 153L54.9552 150.672L56.7957 149.052C57.3139 148.539 57.8952 148.094 58.5257 147.727C58.8191 147.734 59.1028 147.834 59.3356 148.012C59.4491 148.089 59.5425 148.191 59.6082 148.311C59.6738 148.432 59.7097 148.566 59.7129 148.702L57.1546 151.675C55.4429 153.699 54.5963 155.052 54.5963 155.715C54.5963 155.917 54.7067 156.009 54.9184 156.009C55.5748 156.009 57.1607 154.81 59.676 152.411C61.5165 150.644 63.0717 149.071 64.2773 147.69C64.5257 147.405 64.7098 147.267 64.8202 147.267C65.0502 147.278 65.2728 147.351 65.4644 147.479C65.558 147.53 65.6374 147.604 65.6952 147.694C65.7531 147.784 65.7876 147.887 65.7957 147.994C65.7743 148.144 65.6991 148.281 65.584 148.38C63.2396 150.964 61.0458 153.68 59.0135 156.515V156.534ZM43.3693 152.641C44.7835 152.5 46.1482 152.044 47.3632 151.307C48.4122 150.617 48.9276 150.037 48.9276 149.558C48.9276 149.31 48.7711 149.181 48.4583 149.181C47.2619 149.163 45.5411 150.313 43.3325 152.623L43.3693 152.641ZM43.857 149.549L39.5135 153.23L36.5411 155.586C35.5486 156.412 34.3364 156.93 33.0533 157.077C32.9337 157.077 32.8601 157.012 32.8601 156.856C32.8591 156.765 32.8912 156.676 32.9504 156.607C33.0096 156.537 33.092 156.492 33.1822 156.479C34.6178 156.147 36.5411 154.96 38.9797 152.926L43.581 149.071C45.3965 147.42 47.1084 145.659 48.7067 143.798L53.2527 138.607C53.9705 137.752 54.4675 137.319 54.7619 137.319C54.8394 137.308 54.9182 137.316 54.9923 137.341C55.0664 137.366 55.1337 137.407 55.189 137.463C55.2443 137.518 55.286 137.585 55.3109 137.659C55.3358 137.733 55.3432 137.812 55.3325 137.89C55.0964 138.814 54.6128 139.657 53.9337 140.328L51.8632 142.583L45.4214 150.055C47.0227 148.905 48.1822 148.325 48.9644 148.325C49.1415 148.3 49.3222 148.315 49.4923 148.371C49.6624 148.427 49.8172 148.521 49.9447 148.647C50.0721 148.773 50.1688 148.926 50.227 149.095C50.2852 149.265 50.3035 149.445 50.2803 149.623C50.2803 150.598 49.4245 151.463 47.7037 152.126C46.4715 152.653 45.1508 152.944 43.811 152.982C44.2067 153.902 44.7313 154.96 45.3386 156.138C45.4703 156.273 45.6302 156.376 45.8069 156.442C45.9835 156.507 46.1725 156.532 46.3601 156.515C46.5073 156.515 46.5902 156.598 46.5902 156.764C46.5902 156.929 46.1576 157.114 45.311 157.114C44.9355 157.123 44.5662 157.017 44.2527 156.81C43.4899 155.829 42.8702 154.744 42.4122 153.589L40.8202 155.549C39.9 156.607 39.3662 157.141 39.1914 157.141C38.7313 157.141 38.492 156.874 38.492 156.331C38.492 156.018 39.3448 154.831 41.0503 152.77L43.857 149.549ZM37.8018 148.463C37.8018 149.623 36.946 150.985 35.2343 152.549C33.3484 154.249 31.1386 155.551 28.7374 156.377C26.3567 157.226 23.8477 157.659 21.3202 157.656C17.8724 157.656 16.1484 156.626 16.1484 154.564C16.1484 153.331 17.1239 152.209 19.0564 151.187C20.4586 150.373 22.0377 149.912 23.6576 149.844C24.0994 149.844 24.3202 149.982 24.3202 150.239C24.3202 150.497 24.0994 150.543 23.6392 150.607C22.3234 150.813 21.0416 151.197 19.8294 151.748C18.0994 152.512 17.2343 153.359 17.2343 154.307C17.2343 155.457 18.5779 156.028 21.2466 156.028C23.6238 155.993 25.9784 155.56 28.2129 154.748C30.4895 154.006 32.6105 152.852 34.4705 151.344C36.0441 150 36.8356 148.988 36.8356 148.307C36.8356 147.626 35.7681 147.193 33.6331 146.945C30.0994 146.534 28.1208 146.279 27.6975 146.181C25.5626 145.66 24.4951 144.739 24.4951 143.42C24.4951 141.745 25.7466 140.144 28.2497 138.635C30.6916 137.206 33.3214 136.125 36.0625 135.423C38.2252 134.776 40.4604 134.402 42.7159 134.31C44.8509 134.31 45.9184 134.963 45.9184 136.288C45.9184 137.417 44.9276 138.755 42.946 140.301C40.9644 141.847 39.403 142.589 38.2619 142.528C37.2865 142.528 36.7987 142.187 36.7987 141.515C36.7987 140.844 37.3601 140.291 38.4736 139.537C39.1849 138.96 40.0414 138.591 40.9491 138.469C41.1515 138.469 41.2619 138.534 41.2619 138.663L39.6147 139.583C38.5104 140.196 37.9398 140.647 37.903 140.936C37.9363 140.975 37.9789 141.006 38.0271 141.026C38.0753 141.045 38.1275 141.052 38.1791 141.046C38.9429 141.046 40.2221 140.521 41.9981 139.472C43.7742 138.423 44.8141 137.439 44.8141 136.712C44.8141 135.985 44.0595 135.791 42.5411 135.791C40.0288 135.936 37.5499 136.438 35.1791 137.282C33.2704 137.872 31.4041 138.592 29.5932 139.436C26.8325 140.733 25.4337 141.902 25.4337 142.96C25.4337 143.632 26.3079 144.129 28.0656 144.451L33.2834 145.123C35.3172 145.426 36.5595 145.877 36.9644 146.457C37.4429 147.013 37.7243 147.712 37.765 148.445L37.8018 148.463Z" fill="#E31E24"/>
<defs>
<linearGradient id="paint0_linear_50_234" x1="20.3733" y1="73.5276" x2="51.0543" y2="54.6257" gradientUnits="userSpaceOnUse">
<stop stop-color="#D7B56D"/>
<stop offset="1" stop-color="#AF9778"/>
</linearGradient>
<linearGradient id="paint1_linear_50_234" x1="61.7756" y1="42.9387" x2="61.2879" y2="-14.2546" gradientUnits="userSpaceOnUse">
<stop stop-color="#00A0E3"/>
<stop offset="1" stop-color="#FEFEFE"/>
</linearGradient>
<linearGradient id="paint2_linear_50_234" x1="72.053" y1="53.6135" x2="101.703" y2="76.5552" gradientUnits="userSpaceOnUse">
<stop stop-color="#393185"/>
<stop offset="1" stop-color="#00A0E3"/>
</linearGradient>
</defs>
</svg>
