<svg width="176" height="217" viewBox="0 0 176 217" fill="none" xmlns="http://www.w3.org/2000/svg">
<g clip-path="url(#clip0_52_2)">
<path d="M91.8401 75.6H84.1602V87.97H91.8401V75.6Z" fill="#404B97"/>
<mask id="mask0_52_2" style="mask-type:luminance" maskUnits="userSpaceOnUse" x="25" y="18" width="19" height="19">
<path d="M30.3013 18.38H30.2313C29.5341 18.391 28.8679 18.6704 28.3713 19.16L26.7213 20.81C26.2218 21.3122 25.9414 21.9917 25.9414 22.7C25.9414 23.4083 26.2218 24.0878 26.7213 24.59L37.5013 35.36C37.7487 35.6097 38.043 35.808 38.3674 35.9433C38.6918 36.0786 39.0398 36.1482 39.3913 36.1482C39.7428 36.1482 40.0908 36.0786 40.4152 35.9433C40.7396 35.808 41.034 35.6097 41.2813 35.36L42.9313 33.71C43.4308 33.2078 43.7113 32.5283 43.7113 31.82C43.7113 31.1117 43.4308 30.4322 42.9313 29.93L32.1513 19.16C31.6596 18.6692 30.996 18.3894 30.3013 18.38Z" fill="white"/>
</mask>
<g mask="url(#mask0_52_2)">
<path d="M43.9716 18.38H25.6816V36.41H43.9716V18.38Z" fill="url(#paint0_linear_52_2)"/>
</g>
<mask id="mask1_52_2" style="mask-type:luminance" maskUnits="userSpaceOnUse" x="84" y="0" width="8" height="21">
<path d="M86.8302 20.58H89.1702C89.8775 20.5774 90.5551 20.2952 91.0552 19.7951C91.5554 19.2949 91.8375 18.6173 91.8401 17.91V2.67C91.8375 1.96268 91.5554 1.28509 91.0552 0.784935C90.5551 0.284783 89.8775 0.00263436 89.1702 0L86.8302 0C86.1228 0.00263436 85.4452 0.284783 84.9451 0.784935C84.4449 1.28509 84.1628 1.96268 84.1602 2.67V17.91C84.1628 18.6173 84.4449 19.2949 84.9451 19.7951C85.4452 20.2952 86.1228 20.5774 86.8302 20.58Z" fill="white"/>
</mask>
<g mask="url(#mask1_52_2)">
<path d="M91.8401 0H84.1602V20.58H91.8401V0Z" fill="url(#paint1_linear_52_2)"/>
</g>
<mask id="mask2_52_2" style="mask-type:luminance" maskUnits="userSpaceOnUse" x="131" y="19" width="19" height="19">
<path d="M143.24 20.63L132.47 31.4C132.22 31.6474 132.022 31.9417 131.887 32.2661C131.751 32.5905 131.682 32.9385 131.682 33.29C131.682 33.6415 131.751 33.9895 131.887 34.3139C132.022 34.6383 132.22 34.9327 132.47 35.18L134.11 36.83C134.614 37.3302 135.295 37.6108 136.005 37.6108C136.715 37.6108 137.396 37.3302 137.9 36.83L148.67 26.06C149.17 25.5561 149.451 24.875 149.451 24.165C149.451 23.4551 149.17 22.7739 148.67 22.27L147 20.63C146.753 20.3803 146.458 20.182 146.134 20.0468C145.809 19.9115 145.461 19.8418 145.11 19.8418C144.758 19.8418 144.41 19.9115 144.086 20.0468C143.762 20.182 143.467 20.3803 143.22 20.63" fill="white"/>
</mask>
<g mask="url(#mask2_52_2)">
<path d="M149.71 19.8401H131.42V37.8701H149.71V19.8401Z" fill="url(#paint2_linear_52_2)"/>
</g>
<mask id="mask3_52_2" style="mask-type:luminance" maskUnits="userSpaceOnUse" x="33" y="27" width="110" height="40">
<path d="M33.7012 66.51C36.6428 65.9897 39.6239 65.7253 42.6112 65.72C46.3277 56.7152 52.6367 49.0183 60.737 43.6068C68.8373 38.1953 78.3632 35.3135 88.1047 35.3275C97.8463 35.3414 107.364 38.2504 115.449 43.685C123.533 49.1197 129.82 56.8346 133.511 65.85C134.441 65.85 135.411 65.85 136.511 65.96C138.482 66.0578 140.445 66.2681 142.391 66.59C138.625 55.1544 131.349 45.1978 121.597 38.1369C111.845 31.0759 100.115 27.2702 88.0751 27.2614C76.0354 27.2525 64.2995 31.0409 54.5374 38.0875C44.7752 45.1341 37.484 55.08 33.7012 66.51Z" fill="white"/>
</mask>
<g mask="url(#mask3_52_2)">
<path d="M142.411 27.24H33.7012V66.59H142.411V27.24Z" fill="url(#paint3_linear_52_2)"/>
</g>
<mask id="mask4_52_2" style="mask-type:luminance" maskUnits="userSpaceOnUse" x="56" y="45" width="64" height="38">
<path d="M119.531 78.8901V61.6301L88.0007 45.5601L56.4707 61.6301V78.7801C59.2541 79.5584 61.9617 80.5858 64.5607 81.8501V66.5901L88.0007 54.6401L111.441 66.6401V82.1401C112.631 81.5901 113.821 81.0601 115.001 80.5801L116.781 79.7801L117.141 79.6601C117.901 79.4101 118.691 79.1701 119.531 78.9401" fill="white"/>
</mask>
<g mask="url(#mask4_52_2)">
<path d="M119.531 45.5601H56.4707V82.0901H119.531V45.5601Z" fill="url(#paint4_linear_52_2)"/>
</g>
<mask id="mask5_52_2" style="mask-type:luminance" maskUnits="userSpaceOnUse" x="89" y="84" width="31" height="36">
<path d="M110.7 89.59C109.5 96 106.46 104 98.8304 108.3C98.8304 108.3 97.6604 114.04 89.4004 119.77L94.7104 118.5C111.95 114.38 118.71 98.58 119.47 84.27C119.47 84.27 113.62 86.88 110.7 89.59Z" fill="white"/>
</mask>
<g mask="url(#mask5_52_2)">
<path d="M119.47 84.27H89.4004V119.77H119.47V84.27Z" fill="url(#paint5_linear_52_2)"/>
</g>
<mask id="mask6_52_2" style="mask-type:luminance" maskUnits="userSpaceOnUse" x="89" y="73" width="56" height="47">
<path d="M133.38 73.4H133.1C129.983 73.3988 126.875 73.7341 123.83 74.4C123.339 74.4752 122.855 74.5854 122.38 74.73H122.27C121.35 74.97 120.44 75.23 119.53 75.53L117.96 76.24C115.88 77.07 114.04 77.93 112.66 78.63L111.44 79.18C110.94 79.47 110.44 79.76 109.98 80.07C106.545 82.2655 103.438 84.9352 100.75 88C94.2315 95.3009 90.3573 104.582 89.7499 114.35L89.4199 119.8C97.6799 114.07 98.8499 108.33 98.8499 108.33C100.71 100.983 104.86 94.4197 110.7 89.59C113.62 86.88 119.47 84.27 119.47 84.27C125.019 81.9165 131.08 81.0314 137.07 81.7C137.07 81.7 138.07 75.14 144.48 74.76C141.739 74.0282 138.925 73.6055 136.09 73.5C135.19 73.44 134.28 73.4 133.38 73.4Z" fill="white"/>
</mask>
<g mask="url(#mask6_52_2)">
<path d="M144.48 73.4H89.4004V119.78H144.48V73.4Z" fill="url(#paint6_linear_52_2)"/>
</g>
<mask id="mask7_52_2" style="mask-type:luminance" maskUnits="userSpaceOnUse" x="31" y="73" width="56" height="47">
<path d="M31.5098 74.76C38.7198 76.23 38.9298 81.7 38.9298 81.7C44.9197 81.0363 50.9797 81.9212 56.5298 84.27C59.7934 85.4095 62.7813 87.222 65.2998 89.59C71.1418 94.4089 75.2989 100.962 77.1698 108.3C79.7398 117.13 86.5998 119.77 86.5998 119.77L86.2698 114.32C86.1107 111.806 85.736 109.31 85.1498 106.86L84.9998 106.4C83.5738 100.741 81.0311 95.4237 77.5209 90.7613C74.0108 86.0988 69.6041 82.185 64.5598 79.25C57.9785 75.2854 50.4328 73.2095 42.7498 73.25C38.951 73.205 35.1656 73.7068 31.5098 74.74" fill="white"/>
</mask>
<g mask="url(#mask7_52_2)">
<path d="M86.5998 73.27H31.5098V119.77H86.5998V73.27Z" fill="url(#paint7_linear_52_2)"/>
</g>
<mask id="mask8_52_2" style="mask-type:luminance" maskUnits="userSpaceOnUse" x="30" y="74" width="116" height="68">
<path d="M145.25 84.49V84.38C145.235 82.1472 145.095 79.917 144.83 77.7L144.48 74.76C138.04 75.14 137.07 81.7 137.07 81.7C137.13 82.64 137.15 83.56 137.15 84.49C137.12 95.7734 133.222 106.705 126.107 115.463C118.991 124.22 109.088 130.272 98.0496 132.61C94.7584 133.279 91.4081 133.614 88.0496 133.61C84.6911 133.614 81.3408 133.279 78.0496 132.61C67.0111 130.272 57.108 124.22 49.9925 115.463C42.8769 106.705 38.9792 95.7734 38.9496 84.49C38.9496 83.56 38.9496 82.64 39.0296 81.7C39.0296 81.7 38.8196 76.23 31.6096 74.76L31.2696 77.7C30.9942 79.9529 30.854 82.2203 30.8496 84.49C30.8496 99.6736 36.8813 114.235 47.6177 124.972C58.3542 135.708 72.916 141.74 88.0996 141.74C103.283 141.74 117.845 135.708 128.581 124.972C139.318 114.235 145.35 99.6736 145.35 84.49" fill="white"/>
</mask>
<g mask="url(#mask8_52_2)">
<path d="M145.25 74.76H30.75V141.73H145.25V74.76Z" fill="url(#paint8_linear_52_2)"/>
</g>
<mask id="mask9_52_2" style="mask-type:luminance" maskUnits="userSpaceOnUse" x="56" y="84" width="31" height="36">
<path d="M81.2913 118.5L86.6012 119.77C86.6012 119.77 79.7412 117.13 77.1712 108.3C69.5412 104 66.5013 96 65.3013 89.59C62.7828 87.2221 59.7949 85.4096 56.5312 84.27C57.2613 98.58 64.0513 114.38 81.2913 118.5Z" fill="white"/>
</mask>
<g mask="url(#mask9_52_2)">
<path d="M86.6012 84.27H56.5312V119.77H86.6012V84.27Z" fill="url(#paint9_linear_52_2)"/>
</g>
<path d="M3.76055 210.76V216.43H2.06055V199.43H9.67055C17.2905 199.43 17.2905 210.76 9.67055 210.79L3.76055 210.76ZM3.76055 209.15H9.67055C15.0005 209.15 15.0005 201 9.67055 201H3.76055V209.15Z" fill="#72817F"/>
<path d="M38.6302 216.43H36.4102L30.7702 210.15H26.3602V216.43H24.6602V199.43H32.3002C36.1002 199.43 37.9202 201.96 37.9402 204.83C37.9402 207.48 36.4102 209.89 32.8102 210.06L38.6302 216.43ZM26.3602 201V208.54H32.2002C34.9302 208.54 36.2002 206.94 36.2002 204.8C36.2324 204.284 36.1528 203.767 35.9668 203.285C35.7808 202.802 35.4928 202.366 35.1225 202.005C34.7522 201.644 34.3082 201.367 33.8211 201.194C33.334 201.02 32.8152 200.954 32.3002 201H26.3602Z" fill="#72817F"/>
<path d="M64.1211 208C64.1211 212.45 61.2811 216.78 55.5111 216.78C49.7411 216.78 46.8711 212.45 46.8711 207.98C46.8711 203.18 49.9911 199.14 55.5111 199.14C61.2811 199.14 64.1511 203.45 64.1211 208ZM55.5111 215.18C60.1611 215.18 62.4011 211.65 62.4211 208C62.4211 204.18 60.1611 200.77 55.5111 200.75C50.8611 200.73 48.5111 203.99 48.5811 208C48.6211 211.68 50.8611 215.14 55.5111 215.14V215.18Z" fill="#72817F"/>
<path d="M85.9396 199.4V209.79C85.9396 214.04 83.0696 216.65 79.0096 216.65C74.9496 216.65 72.0996 214 72.0996 209.84H73.7996C73.8029 210.526 73.9412 211.204 74.2065 211.836C74.4719 212.468 74.8591 213.041 75.3462 213.524C75.8332 214.006 76.4105 214.388 77.0451 214.647C77.6797 214.907 78.3591 215.038 79.0446 215.035C79.7301 215.032 80.4083 214.893 81.0403 214.628C81.6724 214.363 82.246 213.975 82.7284 213.488C83.2108 213.001 83.5925 212.424 83.8518 211.79C84.1111 211.155 84.2429 210.476 84.2396 209.79V201H77.9996V199.4H85.9396Z" fill="#72817F"/>
<path d="M108.761 216.43H96.5508V199.4H108.541V201H98.2508V207.11H108.081V208.69H98.2508V214.82H108.761V216.43Z" fill="#72817F"/>
<path d="M132.341 214.12C131.529 214.939 130.561 215.588 129.495 216.03C128.429 216.471 127.285 216.695 126.131 216.69C120.251 216.69 117.301 212.75 117.281 208.01C117.261 203.27 120.221 199.15 126.131 199.15C127.257 199.122 128.375 199.336 129.41 199.777C130.445 200.219 131.373 200.878 132.131 201.71L131.131 202.71C129.794 201.409 127.997 200.69 126.131 200.71C121.391 200.71 118.981 204.21 118.981 207.98C118.981 211.98 121.391 215.11 126.131 215.11C128.042 215.105 129.875 214.355 131.241 213.02L132.341 214.12Z" fill="#72817F"/>
<path d="M145.721 201H139.711V199.4H153.431V201H147.421V216.43H145.721V201Z" fill="#72817F"/>
<path d="M172.89 202.9C171.89 201.3 169.8 200.76 168 200.73C165.91 200.73 163.21 201.34 163.21 203.85C163.21 205.85 165.4 206.38 168.05 206.85C171.41 207.44 174.82 208.19 174.82 211.85C174.82 215.7 171.09 216.74 168 216.74C165.13 216.74 162.21 215.74 160.9 212.97L162.38 212.17C162.96 213.127 163.789 213.908 164.78 214.428C165.77 214.947 166.884 215.187 168 215.12C170.1 215.12 173.09 214.56 173.09 211.83C173.09 209.52 170.53 208.94 167.88 208.47C164.67 207.91 161.51 207.21 161.51 203.9C161.51 200.32 165.11 199.18 167.98 199.18C170.31 199.18 172.82 199.81 174.33 202.18L172.89 202.9Z" fill="#72817F"/>
<path d="M19.9005 171.54C21.1399 172.045 22.2755 172.773 23.2505 173.69C24.2017 174.592 24.9662 175.673 25.5005 176.87C26.0521 178.089 26.3352 179.412 26.3305 180.75C26.3375 182.111 26.0545 183.457 25.5005 184.7C24.9719 185.909 24.207 187.001 23.2505 187.91C22.2755 188.827 21.1399 189.555 19.9005 190.06C18.6063 190.592 17.2199 190.864 15.8205 190.86H8.66049C7.18134 190.881 5.71178 190.619 4.33049 190.09C3.19889 189.679 2.17379 189.019 1.33049 188.16C0.671105 187.492 0.288876 186.598 0.260493 185.66C0.277223 185.16 0.406376 184.67 0.63836 184.227C0.870344 183.784 1.1992 183.399 1.60049 183.1L5.60049 181.25C4.97077 181.551 4.47942 182.08 4.2267 182.73C3.97398 183.381 3.97891 184.103 4.24049 184.75C4.82443 185.294 5.50203 185.728 6.24049 186.03C7.00939 186.354 7.83627 186.517 8.67049 186.51H15.7805C16.5952 186.513 17.403 186.36 18.1605 186.06C18.8963 185.775 19.574 185.358 20.1605 184.83C20.7186 184.324 21.1707 183.712 21.4905 183.03C21.8001 182.327 21.9601 181.568 21.9601 180.8C21.9601 180.032 21.8001 179.273 21.4905 178.57C21.1752 177.894 20.7222 177.291 20.1605 176.8C19.57 176.285 18.8928 175.879 18.1605 175.6C17.4049 175.292 16.5963 175.136 15.7805 175.14H9.66049C8.37233 175.149 7.09598 174.894 5.91049 174.39C3.58628 173.41 1.73542 171.562 0.750493 169.24C0.24261 168.052 -0.0127935 166.772 0.000493003 165.48C-0.00797258 164.192 0.247264 162.916 0.750493 161.73C1.23742 160.602 1.94455 159.582 2.83049 158.73C3.72198 157.855 4.76576 157.15 5.91049 156.65C7.0909 156.127 8.36928 155.861 9.66049 155.87H17.6605C18.3806 155.817 19.1046 155.868 19.8105 156.02C20.6706 156.197 21.5113 156.459 22.3205 156.8C23.1072 157.113 23.8555 157.516 24.5505 158C25.1661 158.433 25.6868 158.988 26.0805 159.63C26.2445 159.911 26.351 160.222 26.3939 160.545C26.4369 160.868 26.4153 161.196 26.3305 161.51C26.0389 162.339 25.4748 163.044 24.7305 163.51L20.7305 165.31C21.0474 165.195 21.3338 165.009 21.5678 164.766C21.8018 164.524 21.9771 164.231 22.0805 163.91C22.3195 163.261 22.3016 162.546 22.0305 161.91C21.4526 161.32 20.7591 160.855 19.9933 160.546C19.2276 160.236 18.4062 160.088 17.5805 160.11H9.58049C8.87111 160.079 8.1628 160.192 7.49826 160.442C6.83372 160.692 6.2267 161.074 5.71379 161.565C5.20088 162.056 4.79269 162.646 4.51383 163.299C4.23496 163.952 4.0912 164.655 4.0912 165.365C4.0912 166.075 4.23496 166.778 4.51383 167.431C4.79269 168.084 5.20088 168.674 5.71379 169.165C6.2267 169.656 6.83372 170.038 7.49826 170.288C8.1628 170.538 8.87111 170.651 9.58049 170.62H15.7405C17.1399 170.616 18.5263 170.888 19.8205 171.42" fill="#72817F"/>
<path d="M59.0911 156.6C59.3269 156.352 59.6108 156.155 59.9255 156.021C60.2402 155.887 60.579 155.818 60.9211 155.82H64.9211C64.6009 155.848 64.2896 155.94 64.006 156.091C63.7225 156.242 63.4725 156.449 63.2711 156.7C62.8473 157.196 62.6165 157.828 62.6211 158.48V177.75C62.6427 179.494 62.3022 181.224 61.6211 182.83C60.9563 184.386 60.0066 185.803 58.8211 187.01C57.631 188.209 56.2223 189.17 54.6711 189.84C52.2541 190.863 49.5864 191.139 47.0113 190.632C44.4361 190.126 42.0713 188.861 40.2211 187C39.0322 185.796 38.0821 184.378 37.4211 182.82C36.74 181.214 36.3995 179.484 36.4211 177.74V158.48C36.4257 157.828 36.1949 157.196 35.7711 156.7C35.5682 156.451 35.3178 156.245 35.0345 156.094C34.7513 155.943 34.4407 155.85 34.1211 155.82H38.1211C38.4699 155.82 38.8154 155.889 39.1375 156.023C39.4597 156.156 39.7523 156.353 39.9985 156.6C40.2447 156.847 40.4397 157.14 40.5723 157.463C40.7048 157.785 40.7724 158.131 40.7711 158.48V177.75C40.7685 178.901 40.9933 180.041 41.4326 181.105C41.8719 182.169 42.5171 183.136 43.3311 183.95C44.1298 184.757 45.0818 185.396 46.1311 185.83C47.2102 186.279 48.3674 186.51 49.5361 186.51C50.7048 186.51 51.8619 186.279 52.9411 185.83C53.9904 185.396 54.9424 184.757 55.7411 183.95C56.5564 183.138 57.2018 182.171 57.6396 181.106C58.0774 180.042 58.2989 178.901 58.2911 177.75V158.48C58.2851 158.13 58.3512 157.782 58.4854 157.459C58.6196 157.135 58.819 156.843 59.0711 156.6" fill="#72817F"/>
<path d="M98.0001 190C98.5975 190.457 99.3043 190.75 100.05 190.85H96.0001C95.5764 190.839 95.1561 190.771 94.7501 190.65C94.2645 190.51 93.7952 190.319 93.3501 190.08C92.9027 189.842 92.4776 189.564 92.0801 189.25C91.725 188.99 91.4398 188.647 91.2501 188.25L88.8001 183.25L86.6901 178.95L84.8901 175.14H80.1901C80.067 175.123 79.9418 175.135 79.8242 175.175C79.7066 175.215 79.5999 175.282 79.5126 175.37C79.4253 175.458 79.3597 175.566 79.3211 175.684C79.2825 175.802 79.2719 175.927 79.2901 176.05V188.31C79.2941 188.992 79.0322 189.648 78.5601 190.14C78.3192 190.394 78.027 190.594 77.7029 190.727C77.3788 190.86 77.0301 190.922 76.6801 190.91H72.5801C73.2246 190.845 73.8221 190.544 74.2564 190.063C74.6907 189.583 74.9308 188.958 74.9301 188.31V158.48C74.9366 157.824 74.6976 157.189 74.2601 156.7C73.8381 156.197 73.2342 155.88 72.5801 155.82H89.0001C90.2912 155.812 91.5693 156.078 92.7501 156.6C93.8706 157.101 94.888 157.806 95.7501 158.68C97.0661 159.997 97.971 161.667 98.3545 163.489C98.738 165.311 98.5836 167.205 97.9101 168.94C97.0639 171.12 95.4539 172.919 93.3801 174C92.3296 174.551 91.1813 174.891 90.0001 175L91.9001 178.86L96.4601 188.17C96.7919 188.912 97.3255 189.546 98.0001 190ZM91.0001 170.33C91.6206 170.068 92.1818 169.684 92.6501 169.2C93.1204 168.713 93.5027 168.148 93.7801 167.53C94.0571 166.88 94.1999 166.181 94.1999 165.475C94.1999 164.769 94.0571 164.07 93.7801 163.42C93.5013 162.8 93.1192 162.232 92.6501 161.74C92.1812 161.262 91.6198 160.884 91.0001 160.63C90.3666 160.365 89.6867 160.229 89.0001 160.23H80.1901C79.5901 160.23 79.2901 160.51 79.2901 161.08V169.84C79.2736 169.962 79.2855 170.086 79.3249 170.203C79.3643 170.32 79.4301 170.426 79.5172 170.513C79.6043 170.6 79.7103 170.666 79.827 170.705C79.9438 170.745 80.068 170.757 80.1901 170.74H89.0001C89.6867 170.741 90.3666 170.605 91.0001 170.34V170.33Z" fill="#72817F"/>
<path d="M133.75 156.25C134.141 155.964 134.615 155.814 135.1 155.82H141.65C140.838 155.951 140.067 156.269 139.4 156.75C138.251 157.621 137.24 158.659 136.4 159.83L125.64 174V188.22C125.645 188.57 125.578 188.917 125.444 189.241C125.31 189.564 125.111 189.856 124.86 190.1C124.623 190.346 124.338 190.54 124.024 190.673C123.709 190.805 123.371 190.872 123.03 190.87H118.93C119.578 190.812 120.179 190.508 120.61 190.02C121.056 189.528 121.295 188.884 121.28 188.22V173.89L110.57 159.83C109.738 158.652 108.725 157.613 107.57 156.75C106.88 156.27 106.09 155.952 105.26 155.82H111.87C112.363 155.816 112.846 155.966 113.25 156.25C113.639 156.497 113.956 156.842 114.17 157.25L123.48 169.52L132.9 157.25C133.112 156.847 133.421 156.503 133.8 156.25" fill="#72817F"/>
<path d="M173.771 190C174.184 190.479 174.763 190.783 175.391 190.85H171.391C171.042 190.856 170.695 190.79 170.372 190.658C170.049 190.525 169.756 190.329 169.511 190.08C169.263 189.844 169.066 189.56 168.932 189.246C168.798 188.931 168.729 188.592 168.731 188.25V177.75H151.171V188.26C151.175 188.942 150.913 189.598 150.441 190.09C150.2 190.344 149.908 190.544 149.584 190.677C149.26 190.81 148.911 190.872 148.561 190.86H144.461C145.106 190.803 145.705 190.498 146.131 190.01C146.577 189.538 146.821 188.91 146.811 188.26V169C146.789 167.246 147.13 165.506 147.811 163.89C148.47 162.318 149.431 160.891 150.641 159.69C151.837 158.489 153.253 157.528 154.811 156.86C156.418 156.184 158.147 155.843 159.891 155.86C161.661 155.84 163.416 156.18 165.051 156.86C166.617 157.518 168.038 158.48 169.231 159.69C170.421 160.9 171.371 162.326 172.031 163.89C172.712 165.506 173.053 167.246 173.031 169V188.27C173.021 188.92 173.265 189.548 173.711 190.02M168.621 169.02C168.635 167.865 168.419 166.719 167.986 165.647C167.554 164.576 166.913 163.602 166.101 162.78C165.302 161.99 164.358 161.362 163.321 160.93C162.224 160.476 161.048 160.248 159.861 160.26C158.694 160.252 157.538 160.48 156.461 160.93C155.419 161.364 154.469 161.992 153.661 162.78C152.858 163.574 152.219 164.519 151.781 165.56C151.327 166.657 151.099 167.833 151.111 169.02V173.37H168.621V169.02Z" fill="#72817F"/>
</g>
<defs>
<linearGradient id="paint0_linear_52_2" x1="34.8316" y1="-2.18" x2="34.8316" y2="96.43" gradientUnits="userSpaceOnUse">
<stop stop-color="#F8D424"/>
<stop offset="0.13" stop-color="#F8D424"/>
<stop offset="0.76" stop-color="#D44739"/>
<stop offset="1" stop-color="#D44739"/>
</linearGradient>
<linearGradient id="paint1_linear_52_2" x1="88.0002" y1="-1.16" x2="88.0002" y2="94.87" gradientUnits="userSpaceOnUse">
<stop stop-color="#F8D424"/>
<stop offset="0.13" stop-color="#F8D424"/>
<stop offset="0.76" stop-color="#D44739"/>
<stop offset="1" stop-color="#D44739"/>
</linearGradient>
<linearGradient id="paint2_linear_52_2" x1="140.57" y1="-2.23991" x2="140.57" y2="96.4001" gradientUnits="userSpaceOnUse">
<stop stop-color="#F8D424"/>
<stop offset="0.13" stop-color="#F8D424"/>
<stop offset="0.76" stop-color="#D44739"/>
<stop offset="1" stop-color="#D44739"/>
</linearGradient>
<linearGradient id="paint3_linear_52_2" x1="88.0512" y1="-1.16001" x2="88.0512" y2="94.87" gradientUnits="userSpaceOnUse">
<stop stop-color="#F8D424"/>
<stop offset="0.13" stop-color="#F8D424"/>
<stop offset="0.76" stop-color="#D44739"/>
<stop offset="1" stop-color="#D44739"/>
</linearGradient>
<linearGradient id="paint4_linear_52_2" x1="88.0007" y1="64.0801" x2="88.0007" y2="77.4301" gradientUnits="userSpaceOnUse">
<stop stop-color="#ADA39B"/>
<stop offset="0.13" stop-color="#ADA39B"/>
<stop offset="0.76" stop-color="#918B83"/>
<stop offset="1" stop-color="#918B83"/>
</linearGradient>
<linearGradient id="paint5_linear_52_2" x1="104.43" y1="103.87" x2="104.43" y2="89.6" gradientUnits="userSpaceOnUse">
<stop stop-color="#74AC4E"/>
<stop offset="0.15" stop-color="#74AC4E"/>
<stop offset="0.81" stop-color="#5D8B42"/>
<stop offset="1" stop-color="#5D8B42"/>
</linearGradient>
<linearGradient id="paint6_linear_52_2" x1="127.75" y1="96.59" x2="139.44" y2="96.59" gradientUnits="userSpaceOnUse">
<stop stop-color="#74AC4E"/>
<stop offset="0.15" stop-color="#74AC4E"/>
<stop offset="0.81" stop-color="#5D8B42"/>
<stop offset="1" stop-color="#5D8B42"/>
</linearGradient>
<linearGradient id="paint7_linear_52_2" x1="57.8698" y1="96.84" x2="44.9398" y2="100.34" gradientUnits="userSpaceOnUse">
<stop stop-color="#74AC4E"/>
<stop offset="0.15" stop-color="#74AC4E"/>
<stop offset="0.81" stop-color="#5D8B42"/>
<stop offset="1" stop-color="#5D8B42"/>
</linearGradient>
<linearGradient id="paint8_linear_52_2" x1="30.75" y1="108.25" x2="145.25" y2="108.25" gradientUnits="userSpaceOnUse">
<stop stop-color="#38ABA3"/>
<stop offset="0.11" stop-color="#38ABA3"/>
<stop offset="0.84" stop-color="#44ABA2"/>
<stop offset="1" stop-color="#44ABA2"/>
</linearGradient>
<linearGradient id="paint9_linear_52_2" x1="71.5712" y1="96.08" x2="71.5712" y2="86.62" gradientUnits="userSpaceOnUse">
<stop stop-color="#74AC4E"/>
<stop offset="0.15" stop-color="#74AC4E"/>
<stop offset="0.81" stop-color="#5D8B42"/>
<stop offset="1" stop-color="#5D8B42"/>
</linearGradient>
<clipPath id="clip0_52_2">
<rect width="175.39" height="216.74" fill="white"/>
</clipPath>
</defs>
</svg>
